/* XPM */
static char * wall_xpm[] = {
"24 24 4 1",
" 	c None",
".	c #000000",
"+	c #812306",
"-  c #63200c",

"+++++.------.++++++.----",
"+++++.------.++++++.----",
"........................",
"--.++++++.------.++++++.",
"--.++++++.------.++++++.",
"........................",
"+++++.------.++++++.++++",
"+++++.------.++++++.++++",
"........................",
"--.++++++.------.++++++.",
"--.++++++.------.++++++.",
"........................",
"+++++.------.++++++.----",
"+++++.------.++++++.----",
"........................",
"++.------.++++++.------.",
"++.------.++++++.------.",
"........................",
"+++++.------.++++++.----",
"+++++.------.++++++.----",
"........................",
"++.------.++++++.------.",
"++.------.++++++.------.",
"........................",;}

